<?xml version="1.0" encoding="utf-8"?>
<svg xmlns="http://www.w3.org/2000/svg"
	xmlns:xlink="http://www.w3.org/1999/xlink"
	width="20px" height="20px" viewBox="0 0 20 20">
<g><path fillRule="evenodd" d="M 19 19C 19 19 19 1 19 1 19 1 1 1 1 1 1 1 1 19 1 19 1 19 19 19 19 19M 20 20C 20 20 0 20 0 20 0 20 0 0 0 0 0 0 20 0 20 0 20 0 20 20 20 20 20 20 20 20 20 20Z" fill="rgb(233,89,89)"/><path fillRule="evenodd" d="M 16 16C 16 16 16 12 16 12 16 12 12 12 12 12 12 12 12 16 12 16 12 16 16 16 16 16M 17 17C 17 17 11 17 11 17 11 17 11 11 11 11 11 11 17 11 17 11 17 11 17 17 17 17 17 17 17 17 17 17Z" fill="rgb(233,89,89)"/><path fillRule="evenodd" d="M 8 16C 8 16 8 12 8 12 8 12 4 12 4 12 4 12 4 16 4 16 4 16 8 16 8 16M 9 17C 9 17 3 17 3 17 3 17 3 11 3 11 3 11 9 11 9 11 9 11 9 17 9 17 9 17 9 17 9 17Z" fill="rgb(233,89,89)"/><path fillRule="evenodd" d="M 16 8C 16 8 16 4 16 4 16 4 12 4 12 4 12 4 12 8 12 8 12 8 16 8 16 8M 17 9C 17 9 11 9 11 9 11 9 11 3 11 3 11 3 17 3 17 3 17 3 17 9 17 9 17 9 17 9 17 9Z" fill="rgb(233,89,89)"/><path fillRule="evenodd" d="M 8 8C 8 8 8 4 8 4 8 4 4 4 4 4 4 4 4 8 4 8 4 8 8 8 8 8M 9 9C 9 9 3 9 3 9 3 9 3 3 3 3 3 3 9 3 9 3 9 3 9 9 9 9 9 9 9 9 9 9Z" fill="rgb(233,89,89)"/></g></svg>