<?xml version="1.0" encoding="utf-8"?>
<svg xmlns="http://www.w3.org/2000/svg"
	xmlns:xlink="http://www.w3.org/1999/xlink"
	width="20px" height="20px" viewBox="0 0 20 20">
<g><path fillRule="evenodd" d="M 19 19C 19 19 19 1 19 1 19 1 1 1 1 1 1 1 1 19 1 19 1 19 19 19 19 19M 20 20C 20 20 0 20 0 20 0 20 0 0 0 0 0 0 20 0 20 0 20 0 20 20 20 20 20 20 20 20 20 20Z" fill="rgb(233,89,89)"/><path fillRule="evenodd" d="M 5 5C 5 5 3 5 3 5 3 5 3 3 3 3 3 3 5 3 5 3 5 3 5 5 5 5 5 5 5 5 5 5Z" fill="rgb(233,89,89)"/><path fillRule="evenodd" d="M 8 5C 8 5 6 5 6 5 6 5 6 3 6 3 6 3 8 3 8 3 8 3 8 5 8 5 8 5 8 5 8 5Z" fill="rgb(233,89,89)"/><path fillRule="evenodd" d="M 11 5C 11 5 9 5 9 5 9 5 9 3 9 3 9 3 11 3 11 3 11 3 11 5 11 5 11 5 11 5 11 5Z" fill="rgb(233,89,89)"/><path fillRule="evenodd" d="M 14 5C 14 5 12 5 12 5 12 5 12 3 12 3 12 3 14 3 14 3 14 3 14 5 14 5 14 5 14 5 14 5Z" fill="rgb(233,89,89)"/><path fillRule="evenodd" d="M 17 5C 17 5 15 5 15 5 15 5 15 3 15 3 15 3 17 3 17 3 17 3 17 5 17 5 17 5 17 5 17 5Z" fill="rgb(233,89,89)"/><path fillRule="evenodd" d="M 5 8C 5 8 3 8 3 8 3 8 3 6 3 6 3 6 5 6 5 6 5 6 5 8 5 8 5 8 5 8 5 8Z" fill="rgb(233,89,89)"/><path fillRule="evenodd" d="M 8 8C 8 8 6 8 6 8 6 8 6 6 6 6 6 6 8 6 8 6 8 6 8 8 8 8 8 8 8 8 8 8Z" fill="rgb(233,89,89)"/><path fillRule="evenodd" d="M 11 8C 11 8 9 8 9 8 9 8 9 6 9 6 9 6 11 6 11 6 11 6 11 8 11 8 11 8 11 8 11 8Z" fill="rgb(233,89,89)"/><path fillRule="evenodd" d="M 14 8C 14 8 12 8 12 8 12 8 12 6 12 6 12 6 14 6 14 6 14 6 14 8 14 8 14 8 14 8 14 8Z" fill="rgb(233,89,89)"/><path fillRule="evenodd" d="M 17 8C 17 8 15 8 15 8 15 8 15 6 15 6 15 6 17 6 17 6 17 6 17 8 17 8 17 8 17 8 17 8Z" fill="rgb(233,89,89)"/><path fillRule="evenodd" d="M 5 11C 5 11 3 11 3 11 3 11 3 9 3 9 3 9 5 9 5 9 5 9 5 11 5 11 5 11 5 11 5 11Z" fill="rgb(233,89,89)"/><path fillRule="evenodd" d="M 8 11C 8 11 6 11 6 11 6 11 6 9 6 9 6 9 8 9 8 9 8 9 8 11 8 11 8 11 8 11 8 11Z" fill="rgb(233,89,89)"/><path fillRule="evenodd" d="M 11 11C 11 11 9 11 9 11 9 11 9 9 9 9 9 9 11 9 11 9 11 9 11 11 11 11 11 11 11 11 11 11Z" fill="rgb(233,89,89)"/><path fillRule="evenodd" d="M 14 11C 14 11 12 11 12 11 12 11 12 9 12 9 12 9 14 9 14 9 14 9 14 11 14 11 14 11 14 11 14 11Z" fill="rgb(233,89,89)"/><path fillRule="evenodd" d="M 17 11C 17 11 15 11 15 11 15 11 15 9 15 9 15 9 17 9 17 9 17 9 17 11 17 11 17 11 17 11 17 11Z" fill="rgb(233,89,89)"/><path fillRule="evenodd" d="M 5 14C 5 14 3 14 3 14 3 14 3 12 3 12 3 12 5 12 5 12 5 12 5 14 5 14 5 14 5 14 5 14Z" fill="rgb(233,89,89)"/><path fillRule="evenodd" d="M 8 14C 8 14 6 14 6 14 6 14 6 12 6 12 6 12 8 12 8 12 8 12 8 14 8 14 8 14 8 14 8 14Z" fill="rgb(233,89,89)"/><path fillRule="evenodd" d="M 11 14C 11 14 9 14 9 14 9 14 9 12 9 12 9 12 11 12 11 12 11 12 11 14 11 14 11 14 11 14 11 14Z" fill="rgb(233,89,89)"/><path fillRule="evenodd" d="M 14 14C 14 14 12 14 12 14 12 14 12 12 12 12 12 12 14 12 14 12 14 12 14 14 14 14 14 14 14 14 14 14Z" fill="rgb(233,89,89)"/><path fillRule="evenodd" d="M 17 14C 17 14 15 14 15 14 15 14 15 12 15 12 15 12 17 12 17 12 17 12 17 14 17 14 17 14 17 14 17 14Z" fill="rgb(233,89,89)"/><path fillRule="evenodd" d="M 5 17C 5 17 3 17 3 17 3 17 3 15 3 15 3 15 5 15 5 15 5 15 5 17 5 17 5 17 5 17 5 17Z" fill="rgb(233,89,89)"/><path fillRule="evenodd" d="M 8 17C 8 17 6 17 6 17 6 17 6 15 6 15 6 15 8 15 8 15 8 15 8 17 8 17 8 17 8 17 8 17Z" fill="rgb(233,89,89)"/><path fillRule="evenodd" d="M 11 17C 11 17 9 17 9 17 9 17 9 15 9 15 9 15 11 15 11 15 11 15 11 17 11 17 11 17 11 17 11 17Z" fill="rgb(233,89,89)"/><path fillRule="evenodd" d="M 14 17C 14 17 12 17 12 17 12 17 12 15 12 15 12 15 14 15 14 15 14 15 14 17 14 17 14 17 14 17 14 17Z" fill="rgb(233,89,89)"/><path fillRule="evenodd" d="M 17 17C 17 17 15 17 15 17 15 17 15 15 15 15 15 15 17 15 17 15 17 15 17 17 17 17 17 17 17 17 17 17Z" fill="rgb(233,89,89)"/></g></svg>